<svg xmlns="http://www.w3.org/2000/svg" xmlns:xlink="http://www.w3.org/1999/xlink" width="164" height="159.75" viewBox="0 0 164 159.75">
  <defs>
    <clipPath id="clip-path">
      <rect id="vectorMask" width="36.37" height="40.69" transform="translate(218 1301.25)" fill="none"/>
    </clipPath>
  </defs>
  <g id="Brain" transform="translate(-217 -1301.25)">
    <path id="Fill_1" data-name="Fill 1" d="M297,1415.5c-4.738,1-9.212-1.25-12.371-4.75a2.335,2.335,0,0,1,.263-3.5,2.633,2.633,0,0,1,3.685.25,9.11,9.11,0,0,0,6.054,3.25,4.5,4.5,0,0,0,2.369-.5V1389a18.983,18.983,0,0,1-11.055-4.75,2.578,2.578,0,0,1-.263-3.5,2.931,2.931,0,0,1,3.685-.25,14.329,14.329,0,0,0,7.37,3.5v-29.25a9.471,9.471,0,0,0-12.9.25,2.638,2.638,0,0,1-3.685,0,2.334,2.334,0,0,1,0-3.5,14.633,14.633,0,0,1,16.582-2.75V1322a18.3,18.3,0,0,0-13.687,9.75c-11.318-6.25-26.321,2-26.584,15.75a18.172,18.172,0,0,0-14.213,20.5,12.908,12.908,0,0,0,16.056-1.25,21.148,21.148,0,0,1-1.842-5.75,2.515,2.515,0,0,1,2.369-2.75,2.586,2.586,0,0,1,2.9,2.25c.527,3.75,2.9,7.75,6.317,7.5a2.587,2.587,0,0,1,2.9,2.25,2.515,2.515,0,0,1-2.369,2.75,9.262,9.262,0,0,1-6.843-2l-.263-.25A18.664,18.664,0,0,1,240.41,1373a18.283,18.283,0,0,0,.526,19c3.685,1.25,6.58,2.25,11.055.75a13.008,13.008,0,0,0,7.9-7.25,2.668,2.668,0,0,1,3.422-1.25,2.433,2.433,0,0,1,1.316,3.25c-3.685,8.5-12.9,12.75-22.11,10.5a18.538,18.538,0,0,0,11.581,23.25,18.5,18.5,0,0,1,11.318-5.5,18.925,18.925,0,0,1,13.424,4,2.348,2.348,0,0,1,.263,3.5,2.652,2.652,0,0,1-3.685.25,12.809,12.809,0,0,0-17.635,1.5,18,18,0,0,0,25.531,11,18.09,18.09,0,0,0,13.161,9v-29.5Z" fill="#5e90c2"/>
    <path id="Fill_3" data-name="Fill 3" d="M331.076,1371.649a15.753,15.753,0,0,1-5.775,2.994,2.716,2.716,0,0,1-3.15-1.747,2.556,2.556,0,0,1,1.838-2.994c4.2-1,7.088-4.491,6.3-7.485a2.554,2.554,0,0,1,1.835-2.994,2.719,2.719,0,0,1,3.153,1.746,9.23,9.23,0,0,1-.788,6.487,12.99,12.99,0,0,0,8.4,2.245,13.646,13.646,0,0,0,9.713-4.99l.263-.25c.787-10.479-7.875-19.959-18.638-19.46a18,18,0,0,0-23.626-15.968A16.971,16.971,0,0,0,298.525,1322v26.7a14.958,14.958,0,0,1,16.8,3.493,2.344,2.344,0,0,1-.265,3.493,2.64,2.64,0,0,1-3.673-.25,9.431,9.431,0,0,0-12.863-1v28.692a13.188,13.188,0,0,0,7.088-4.491,2.627,2.627,0,0,1,3.675-.249,2.331,2.331,0,0,1,.262,3.493,18.449,18.449,0,0,1-11.288,6.487v21.207a15.156,15.156,0,0,0,10.235,3.244,15.515,15.515,0,0,0,10.765-5.489,2.624,2.624,0,0,1,3.672-.25,2.334,2.334,0,0,1,.265,3.5,20.919,20.919,0,0,1-25.2,5.237V1445a17.335,17.335,0,0,0,11.288-6.487c11.023,4.99,23.626-2.245,25.2-14.471a18.481,18.481,0,0,0,15.488-20.957,12.862,12.862,0,0,0-8.925-2.994,11.786,11.786,0,0,0-8.663,4.491,2.641,2.641,0,0,1-3.675.25,2.331,2.331,0,0,1-.262-3.493,17.933,17.933,0,0,1,23.1-3.742,17.886,17.886,0,0,0,.26-25.448c-5.773,3.742-14.173,3.742-20.736-.5" fill="#f8a322"/>
    <path id="Fill_5" data-name="Fill 5" d="M225.62,1461a8.834,8.834,0,0,1-2.535-17.227v-18.239A2.4,2.4,0,0,1,225.62,1423h24.844a2.706,2.706,0,0,1,2.535,2.534,2.4,2.4,0,0,1-2.535,2.533h-22.31v15.706a8.517,8.517,0,0,1,6.085,8.36A8.756,8.756,0,0,1,225.62,1461Zm0-12.413a3.685,3.685,0,0,0-3.55,3.8,3.878,3.878,0,0,0,3.55,3.8,3.809,3.809,0,0,0,0-7.6Z" fill="#5e90c2"/>
    <g id="Group_9" data-name="Group 9">
      <rect id="Clip_8" data-name="Clip 8" width="36.37" height="40.69" transform="translate(218 1301.25)" fill="rgba(0,0,0,0)"/>
      <g id="Mask_by_Clip_8" data-name="Mask by Clip 8" clip-path="url(#clip-path)">
        <g id="Mask_by_Clip_8-2" data-name="Mask by Clip 8">
          <path id="Fill_7" data-name="Fill 7" d="M251.812,1341.941h-25.1a2.416,2.416,0,0,1-2.561-2.542c0-3.871-.037-7.618-.069-10.924-.052-5.342-.09-9.2.069-9.674a9.093,9.093,0,0,1-6.148-8.645,8.816,8.816,0,0,1,8.709-8.9c4.542,0,8.449,3.993,8.709,8.9a9.48,9.48,0,0,1-1.729,5.467,8.258,8.258,0,0,1-4.419,3.178v18.055h22.541a2.543,2.543,0,1,1,0,5.086Zm-25.1-35.6a3.821,3.821,0,0,0,0,7.628c1.831,0,3.339-1.6,3.586-3.814A3.709,3.709,0,0,0,226.709,1306.34Z" fill="#5e90c2"/>
        </g>
      </g>
    </g>
    <path id="Fill_10" data-name="Fill 10" d="M372.38,1345H347.535a2.484,2.484,0,1,1,0-4.966h22.31v-15.148a8.368,8.368,0,0,1-6.082-8.194,8.619,8.619,0,1,1,17.237,0,8.367,8.367,0,0,1-6.084,8.194v17.631A2.376,2.376,0,0,1,372.38,1345Zm.385-31.809a3.173,3.173,0,0,0-.385.024,3.643,3.643,0,0,0-3.547,3.725,3.409,3.409,0,0,0,3.547,3.477c3.2,0,3.549-2.605,3.549-3.725a3.709,3.709,0,0,0-.894-2.447A2.985,2.985,0,0,0,372.766,1313.191Z" fill="#5e90c2"/>
    <path id="Fill_12" data-name="Fill 12" d="M369.38,1461a8.835,8.835,0,0,1-2.534-17.227v-15.706h-22.31a2.534,2.534,0,1,1,0-5.067H369.38a2.4,2.4,0,0,1,2.535,2.534v18.239a9,9,0,0,1,6.085,8.36A8.756,8.756,0,0,1,369.38,1461Zm0-12.413a3.809,3.809,0,1,0,3.55,3.8A3.684,3.684,0,0,0,369.38,1448.587Z" fill="#5e90c2"/>
  </g>
</svg>
