<svg xmlns="http://www.w3.org/2000/svg" width="168" height="156" viewBox="0 0 168 156">
  <g id="Group_16" data-name="Group 16" transform="translate(-1045 -1304)">
    <g id="Group_2" data-name="Group 2">
      <path id="Fill_11" data-name="Fill 11" d="M1066.944,1460l-21.944-.115,28.745-39.26,11,15.029-17.8,24.346h0Zm21.754-29.768v0h0l-11-15,28.7-39.23,10.6,15.519-28.3,38.712Z" fill="#f8a322"/>
      <path id="Fill_12" data-name="Fill 12" d="M1213,1460H1073l27.706-39.628v.03c.052.075,8.925,12.871,13.375,19.261a2.331,2.331,0,0,0,1.9,1.135,2.367,2.367,0,0,0,1.911-1.135l11.543-16.5,11.563,16.5a2.164,2.164,0,0,0,3.807,0l11.563-16.5,11.542,16.5a2.164,2.164,0,0,0,3.807,0l13.457-19.2.06-.087L1213,1460v0h0Zm-70.093-28.512h0l-11.562-16.5a2.166,2.166,0,0,0-3.786,0l-11.563,16.5c-3.3-4.771-9.554-13.778-11.392-16.425l-.09-.13L1142.908,1360l38.516,54.932-.06.059-11.543,16.5-11.543-16.5a2.2,2.2,0,0,0-3.828,0l-11.542,16.5Z" fill="#5e90c2"/>
      <rect id="Fill_13" data-name="Fill 13" width="4.24" height="50" transform="translate(1139.88 1304)" fill="#5e90c2"/>
      <path id="Fill_14" data-name="Fill 14" d="M1149,1307l23,14.012L1149,1335Z" fill="#f8a322"/>
    </g>
  </g>
</svg>
