<svg xmlns="http://www.w3.org/2000/svg" width="153" height="150" viewBox="0 0 153 150">
  <g id="Group_3" data-name="Group 3" transform="translate(-641 -1306)">
    <path id="Combined_Shape" data-name="Combined Shape" d="M716.383,1396h0a88.27,88.27,0,0,0-29.09-5.106h-.36a86.2,86.2,0,0,0-21.086,2.76A58.3,58.3,0,0,1,716.383,1306l-.007,0,.013,0-.007,0h.009a58.647,58.647,0,0,1,54.015,35.582,57.75,57.75,0,0,1-3.478,52.074,86.2,86.2,0,0,0-21.1-2.764h-.375A88.214,88.214,0,0,0,716.383,1396Zm20.949-30.075a7.491,7.491,0,1,0,7.539,7.491A7.524,7.524,0,0,0,737.332,1365.925Zm-41.884,0a7.491,7.491,0,1,0,7.538,7.491A7.524,7.524,0,0,0,695.448,1365.925Z" fill="#f8a322"/>
    <path id="Path_2" data-name="Path 2" d="M781.157,1429.333A13.343,13.343,0,1,0,794,1442.666a13.095,13.095,0,0,0-12.843-13.333Z" fill="#f8a322"/>
    <path id="Path" d="M721.409,1402.321V1456h45.349a20.112,20.112,0,0,1,21.658-32.472v-15.062q-19.837-11.271-39.674-11.354A74.867,74.867,0,0,0,721.409,1402.321Z" fill="#5e90c2"/>
    <path id="Path-2" data-name="Path" d="M686.26,1397.111q-19.838.086-39.676,11.354v15.063A20.149,20.149,0,0,1,668.24,1456h45.352v-53.677a74.912,74.912,0,0,0-27.333-5.211Z" fill="#5e90c2"/>
    <path id="Path-3" data-name="Path" d="M653.843,1429.333a13.343,13.343,0,1,0,12.843,13.333,13.1,13.1,0,0,0-12.843-13.333Z" fill="#f8a322"/>
  </g>
</svg>
