<svg xmlns="http://www.w3.org/2000/svg" width="446" height="145.63" viewBox="0 0 446 145.63">
  <g id="_1" data-name="1" transform="translate(-778 -2712)">
    <text id="Convenience_Reliability" data-name="Convenience &amp; Reliability" transform="translate(936 2734)" fill="#50575f" font-size="22" font-family="ArialMT, Arial" letter-spacing="0.012em"><tspan x="0" y="0">Convenience &amp; Reliability</tspan></text>
    <text id="A_platform_that_allows_that_tutor_to_conveniently_choose_to_teach_their_skill_either_face-to-face_or_through_the_reliable_tokbox_Feature._Grabbing_more_of_an_opportunity_to_Teach_your_skill_" data-name="A platform that allows that tutor, to conveniently choose to teach their skill either face-to-face, or through the reliable tokbox Feature. Grabbing more of an opportunity to Teach your skill!" transform="translate(936 2748.63)" fill="#a0a2a6" font-size="14" font-family="ArialMT, Arial" letter-spacing="0.012em"><tspan x="0" y="13">A platform that allows that tutor, to </tspan><tspan x="0" y="29.8">conveniently choose to teach their skill either </tspan><tspan x="0" y="46.6">face-to-face, or through the reliable tokbox </tspan><tspan x="0" y="63.4">Feature. Grabbing more of an opportunity to </tspan><tspan x="0" y="80.2">Teach your skill!</tspan></text>
    <g id="Group_12" data-name="Group 12">
      <path id="Fill_1" data-name="Fill 1" d="M878.575,2838H841a4.507,4.507,0,0,1-4.5-4.5,4.458,4.458,0,0,1,4.126-4.456,2.3,2.3,0,0,0,2.059-2.387,2.246,2.246,0,0,0-2.25-2.165H838.75a4.5,4.5,0,0,1,0-9.007,2.252,2.252,0,0,0,0-4.5H836.5a4.5,4.5,0,0,1,0-9.006,2.252,2.252,0,0,0,0-4.5h-2.25a4.5,4.5,0,0,1,0-9.006H863.5a2.252,2.252,0,0,0,2.091-3.09l-3.857-9.646a6.632,6.632,0,0,1-.484-2.511v-6.145a5.625,5.625,0,1,1,11.25,0v7.881a2.263,2.263,0,0,0,.16.838l4.5,11.259a2.27,2.27,0,0,0,1.379,1.3l11.961,3.99v37.7L878.575,2838ZM895,2828.99v-36.03h9v36.03h-9Zm-74.25-2.524h0a78.722,78.722,0,0,1-39.721-48.5l9.376-2.815a58.587,58.587,0,0,0,23.46,29.57l5.668,3.646a2.25,2.25,0,0,0,2.435,0l5.667-3.646.058-.039a11.169,11.169,0,0,1,2.057,15.3,8.859,8.859,0,0,0,.063.937,79.542,79.542,0,0,1-9.063,5.543Zm0-22.668h0l-4.45-2.861a53.824,53.824,0,0,1-21.579-27.078l55.215-16.577a53.969,53.969,0,0,1-8.078,26.677H834.25a8.989,8.989,0,0,0-6.525,15.184c-.212.154-.417.306-.644.473-.6.447-1.23.909-1.872,1.328l-4.459,2.855Zm39.427-19.84H847.1a58.588,58.588,0,0,0,7.38-28.044l9.015-2.706v2.916c0,.338-.008.68-.015,1.012v.014q0,.209-.009.418a10.14,10.14,0,0,0-6.726,9.5v6.145a11.2,11.2,0,0,0,.8,4.184l2.623,6.558Zm-80.193-10.367h0c-.27-1.176-.512-2.363-.762-3.735-.011-.066-.022-.133-.034-.2l0-.023c-.007-.038-.013-.075-.019-.112l8.942-2.677c.254,1.294.573,2.647.948,4.021l-9.069,2.725Zm13.378-4.026h0c-.387-1.447-.69-2.764-.927-4.026l36.612-10.991L850,2748.254v4.3l-56.637,17.005Zm-14.828-4.555h0c-.011-.1-.021-.2-.031-.3s-.02-.2-.032-.3c-.094-.952-.212-2.221-.286-3.594l8.9-2.674c.067,1.505.174,2.881.328,4.207l-8.877,2.666Zm13.271-3.986h0c-.14-1.386-.229-2.806-.265-4.222L850,2739.246v4.3l-58.194,17.472Zm-13.8-4.861h0v-31.326L820.75,2712l42.75,12.835v5.656l-9,2.7v-1.027a2.262,2.262,0,0,0-1.631-2.164l-31.5-9.007a2.208,2.208,0,0,0-1.375.043l-31.5,11.259a2.256,2.256,0,0,0-1.494,2.121v19.041l-9,2.7Zm13.5-4.053v0h0v-16.1l29.326-10.481,29.173,8.34v.68l-58.5,17.563Zm63-.9h0v-4.3l9-2.7v4.306l-9,2.7Zm0-9.007h0v-4.3l9-2.7v4.305l-9,2.7Z" fill="#5e90c2"/>
      <path id="Fill_3" data-name="Fill 3" d="M892.39,2736l-3.39,3.619a36.621,36.621,0,0,1,3.186,3.381l3.814-3.17a42.185,42.185,0,0,0-3.61-3.83" fill="#5e90c2"/>
      <path id="Fill_4" data-name="Fill 4" d="M904,2763.742q0-1.384-.079-2.742l-3.921.318q.065,1.2.069,2.425c0,.666-.016,1.33-.047,1.987l3.931.271q.047-1.123.047-2.258" fill="#5e90c2"/>
      <path id="Fill_5" data-name="Fill 5" d="M888,2733.486a37.578,37.578,0,0,0-3.9-2.486l-2.1,3.819a32.937,32.937,0,0,1,3.438,2.181Z" fill="#5e90c2"/>
      <path id="Fill_6" data-name="Fill 6" d="M903,2770.888l-4.883-.889a36.147,36.147,0,0,1-1.117,4.51l4.729,1.49a41.662,41.662,0,0,0,1.271-5.111" fill="#5e90c2"/>
      <path id="Fill_7" data-name="Fill 7" d="M880,2728.568a39.864,39.864,0,0,0-4.81-1.569l-1.19,4.617a35.873,35.873,0,0,1,4.244,1.383Z" fill="#5e90c2"/>
      <path id="Fill_8" data-name="Fill 8" d="M896,2781.024l3.77,1.976c.431-.748.862-1.513,1.23-2.3l-3.912-1.7q-.494,1.033-1.088,2.025" fill="#5e90c2"/>
      <path id="Fill_9" data-name="Fill 9" d="M894,2746.383a33,33,0,0,1,2.007,3.617l3.993-1.9a38.27,38.27,0,0,0-2.276-4.1Z" fill="#5e90c2"/>
      <path id="Fill_10" data-name="Fill 10" d="M897,2753.541a36.6,36.6,0,0,1,1.163,4.459l4.837-.938a41.185,41.185,0,0,0-1.321-5.062Z" fill="#5e90c2"/>
      <path id="Fill_11" data-name="Fill 11" d="M874.786,2750.541A14.435,14.435,0,0,1,883.606,2764H888a18.95,18.95,0,0,0-11.583-17.675l-.782-.325L874,2750.214Z" fill="#5e90c2"/>
    </g>
  </g>
</svg>
