<svg xmlns="http://www.w3.org/2000/svg" xmlns:xlink="http://www.w3.org/1999/xlink" width="424" height="170.63" viewBox="0 0 424 170.63">
  <defs>
    <clipPath id="clip-path">
      <rect id="vectorMask" width="21" height="13" transform="translate(221 2917)" fill="none"/>
    </clipPath>
  </defs>
  <g id="_3" data-name="3" transform="translate(-221 -2896)">
    <text id="More_Satisfied_Students" data-name="More Satisfied Students" transform="translate(357 2925)" fill="#50575f" font-size="22" font-family="ArialMT, Arial" letter-spacing="0.012em"><tspan x="0" y="0">More Satisfied Students</tspan></text>
    <text id="Seeker_s_unique_platform_offers_students_tutors_various_unheard_of_options_compared_to_the_traditional_tutoring_platform._From_location_to_a_negotiable_rate.Helping_learning_become_a_two-way_street_" data-name="Seeker&apos;s unique platform offers students &amp; tutors various unheard of options compared to the traditional tutoring platform. From location to a negotiable rate.Helping learning become a two-way street!" transform="translate(357 2939.63)" fill="#a0a2a6" font-size="14" font-family="ArialMT, Arial" letter-spacing="0.012em"><tspan x="0" y="13">Seeker&apos;s unique platform offers students &amp; </tspan><tspan x="0" y="29.8">tutors various unheard of options compared </tspan><tspan x="0" y="46.6">to the traditional tutoring platform. From </tspan><tspan x="0" y="63.4">location to a negotiable rate.Helping learning </tspan><tspan x="0" y="80.2">become a two-way street!</tspan></text>
    <path id="Fill_3" data-name="Fill 3" d="M253.744,2922h0c-1.758,0-3.329-1.707-4.337-3.139a52.563,52.563,0,0,1-4.974-9.633,19.938,19.938,0,0,1-1.419-5.731c-.1-1.856.358-3.169,1.37-3.9A3.134,3.134,0,0,1,246.2,2899c1.809,0,3.56,1.585,4.493,3.155a51.544,51.544,0,0,1,4.99,9.679A18.417,18.417,0,0,1,257,2917.5c.052,1.839-.465,3.158-1.537,3.919A2.974,2.974,0,0,1,253.744,2922Zm14.094-3c-2.173,0-3.413-2.131-3.646-4.111-.642-4.009.146-17.03,5.1-18.715a3.285,3.285,0,0,1,1.022-.175c2.394,0,3.384,3.037,3.573,4.642a42.812,42.812,0,0,1-.495,10.112c-.585,3.345-1.859,7.469-4.61,8.12A3.808,3.808,0,0,1,267.838,2919Z" fill="#f8a322"/>
    <g id="Group_9" data-name="Group 9">
      <rect id="Clip_8" data-name="Clip 8" width="21" height="13" transform="translate(221 2917)" fill="rgba(0,0,0,0)"/>
      <g id="Mask_by_Clip_8" data-name="Mask by Clip 8" clip-path="url(#clip-path)">
        <g id="Mask_by_Clip_8-2" data-name="Mask by Clip 8">
          <path id="Fill_7" data-name="Fill 7" d="M221.947,2917.814c-2.31,1.74.122,4.241,1.823,5.546,3.039,2.284,13.371,9.026,17.261,5.764,2.309-1.957,0-4.35-1.823-5.764-3.282-2.284-13.249-8.591-17.261-5.546" fill="#f8a322"/>
        </g>
      </g>
    </g>
    <path id="Fill_10" data-name="Fill 10" d="M258.216,2995.756H233c1.327,28.772,32.516,36,57.069,32.385,13.537-1.936,28.4-9.032,31.189-23.354,5.176-26.063-17.651-32.643-39.152-36.772-6.1-1.161-22.695-5.677-18.315-14.709,3.849-7.742,17.651-6.451,23.491-2.064,2.92,2.193,4.911,5.806,8.361,7.354,6.1,2.581,16.855,1.936,23.624,2.194-.265-26.966-30.525-33.159-53.087-30.063-12.077,1.677-24.553,6.451-29.2,18.45a23.364,23.364,0,0,0-1.327,9.032c-.133,22.579,22.164,24.9,39.815,29.8,6.238,1.677,16.59,3.1,18.713,10.322,2.123,7.354-7.432,12.128-13.4,12.773-10.75,1.032-20.439-4.9-22.562-15.354" fill="#5e90c2"/>
  </g>
</svg>
