<svg xmlns="http://www.w3.org/2000/svg" width="447" height="163.63" viewBox="0 0 447 163.63">
  <g id="_2" data-name="2" transform="translate(-221 -2515)">
    <text id="Secured_Funds" data-name="Secured Funds" transform="translate(380 2537)" fill="#50575f" font-size="22" font-family="ArialMT, Arial" letter-spacing="0.012em"><tspan x="0" y="0">Secured Funds</tspan></text>
    <text id="Simply_complete_Seeker_session_with_satisfied_students_and_safely_secure_your_funds_with_Stripe_s_reliable_system._We_at_Seeker_believe_that_Tutors_have_the_right_To_keep_all_Their_funds_0_Fee_" data-name="Simply, complete Seeker session with satisfied students, and safely secure your funds with Stripe&apos;s reliable system. We at Seeker believe that Tutors have the right To keep all Their funds! 0% Fee!" transform="translate(380 2551.63)" fill="#a0a2a6" font-size="14" font-family="ArialMT, Arial" letter-spacing="0.012em"><tspan x="0" y="13">Simply, complete Seeker session with </tspan><tspan x="0" y="29.8">satisfied students, and safely secure your </tspan><tspan x="0" y="46.6">funds with Stripe&apos;s reliable system. We at </tspan><tspan x="0" y="63.4">Seeker believe that Tutors have the right To </tspan><tspan x="0" y="80.2">keep all Their funds! 0% Fee!</tspan></text>
    <g id="Group_3" data-name="Group 3">
      <path id="Fill_1" data-name="Fill 1" d="M346.277,2641H269.115a11.759,11.759,0,0,0,3.072-7.875V2609.5a11.835,11.835,0,0,0-7.875-11.136v-12.489a11.654,11.654,0,0,0-3.806-8.628c3.294-2.82,7.213-6.907,15.619-22.872h31.5c9.372,17.791,13.25,20.954,17,24.013a34.43,34.43,0,0,1,7.118,7.487,48.43,48.43,0,0,1,9.4,24.525,43.972,43.972,0,0,1-1.481,15.741A11.8,11.8,0,0,1,347,2637.062a11.663,11.663,0,0,1-.722,3.937Zm-43.358-78.749h0a47.185,47.185,0,0,0,1.768,10.309A56.112,56.112,0,0,0,315.992,2594a53.76,53.76,0,0,1,7.813,12.282,68.891,68.891,0,0,1,4.231,11.9,66.692,66.692,0,0,1,2.077,12.558l1.992-6.814c1.515-5.16,3.89-18.748-6.745-33.437a26.719,26.719,0,0,0-5.713-6,43.432,43.432,0,0,1-7.2-7.193A108.246,108.246,0,0,1,302.919,2562.251ZM260.375,2641h-31.5a7.884,7.884,0,0,1-7.875-7.875V2609.5a7.884,7.884,0,0,1,7.875-7.875v-15.749A7.884,7.884,0,0,1,236.75,2578H252.5a7.884,7.884,0,0,1,7.875,7.875v15.749a7.885,7.885,0,0,1,7.875,7.875v23.625A7.884,7.884,0,0,1,260.375,2641Zm-15.75-27.562a3.942,3.942,0,0,0-3.937,3.938v7.875a3.937,3.937,0,1,0,7.875,0v-7.875A3.942,3.942,0,0,0,244.625,2613.437Zm-7.874-27.557v15.75H252.5v-15.75Zm72.843-33.473H274.156a1.969,1.969,0,1,1,0-3.937h35.438a1.969,1.969,0,0,1,0,3.938Zm0-5.907H274.156a1.969,1.969,0,1,1,0-3.937h35.438a1.969,1.969,0,0,1,0,3.938Zm-1.969-5.906h-31.5l-4.853-13.782a7.876,7.876,0,1,1,13.643-7.874l.131.23a8.2,8.2,0,0,1,2.8-3,7.548,7.548,0,0,1,8.064,0,8.192,8.192,0,0,1,2.8,3l.131-.23a7.876,7.876,0,1,1,13.643,7.874l-4.853,13.781Z" fill="#5e90c2"/>
    </g>
  </g>
</svg>
