<svg xmlns="http://www.w3.org/2000/svg" width="188.003" height="66.001" viewBox="0 0 188.003 66.001">
  <path id="Logo" d="M235.79,101a16.027,16.027,0,0,1-7.089-1.635,15.08,15.08,0,0,1-5.976-5.462,18.512,18.512,0,0,1-2.712-7.786l.856.009c0-.037,0-.077-.007-.125,1.177,0,2.374.012,3.531.021,1.44.011,2.929.022,4.395.022.777,4.748,3.648,7.816,7.317,7.816a7.24,7.24,0,0,0,5.456-2.393,6.764,6.764,0,0,1,2.531-1.751,9.615,9.615,0,0,1,2.662-.3c.74,0,1.5.044,2.234.086.71.041,1.38.08,2.012.08a14.118,14.118,0,0,1-5.678,8.429A16.561,16.561,0,0,1,235.791,101h0Zm-34.082,0h0a15.975,15.975,0,0,1-10.861-4.129A16.791,16.791,0,0,1,186,86h.043c0,.028,0,.062.015.078a.038.038,0,0,0,.029.01c2.855,0,5.807,0,8.689.043.545,3.873,3.066,8.04,7.317,8.04a7.944,7.944,0,0,0,3.117-.69,8.675,8.675,0,0,0,2.259-1.64,7.017,7.017,0,0,1,2.632-1.75,9.849,9.849,0,0,1,2.656-.294c.74,0,1.5.043,2.232.084.709.04,1.379.078,2.01.078a14.4,14.4,0,0,1-5.851,8.176A16.861,16.861,0,0,1,201.708,101ZM170.3,101h0a19,19,0,0,1-10.261-2.664,10.94,10.94,0,0,1-3.523-3.645A11.754,11.754,0,0,1,155,89.223h8.493a6.7,6.7,0,0,0,6.792,5.461c.267,0,.538-.014.807-.041a6.205,6.205,0,0,0,4.131-2.268,2.61,2.61,0,0,0,.385-2.241c-.616-2.2-3.246-2.861-5.36-3.4-.335-.085-.652-.165-.944-.247-.745-.215-1.528-.42-2.286-.619-5.49-1.438-11.164-2.923-11.124-9.9a8.673,8.673,0,0,1,.446-3.188,8.829,8.829,0,0,1,3.979-4.622,16.244,16.244,0,0,1,5.855-1.89A24.872,24.872,0,0,1,169.848,66a18.193,18.193,0,0,1,9.642,2.425,9.752,9.752,0,0,1,3.277,3.364,10.307,10.307,0,0,1,1.289,5.094c-.508-.02-1.083-.025-1.692-.03-2.079-.017-4.667-.037-6.265-.745a5.69,5.69,0,0,1-1.735-1.506,8.6,8.6,0,0,0-1.081-1.09,6.781,6.781,0,0,0-4.017-1.242c-1.853,0-3.256.718-3.85,1.971a2.166,2.166,0,0,0-.012,1.969c1.054,2.084,5.333,3.049,6.18,3.222,7.317,1.473,14.97,3.812,13.143,12.979a8.9,8.9,0,0,1-3.895,5.8,15.52,15.52,0,0,1-6.61,2.488A25.818,25.818,0,0,1,170.3,101Zm128.382,0h0a15.848,15.848,0,0,1-9.607-3.165c-3.367-2.5-5.3-6.262-6.078-11.835l8.745.088c.506,4.649,3.527,7.9,7.347,7.9a8.057,8.057,0,0,0,2.666-.48,8.216,8.216,0,0,0,2.614-1.813,7.092,7.092,0,0,1,2.72-1.806,9.748,9.748,0,0,1,2.66-.3c.741,0,1.5.043,2.235.085.71.04,1.381.079,2.014.079a14.786,14.786,0,0,1-5.862,8.309A16.623,16.623,0,0,1,298.684,101Zm-34.708-1h-8.8V85.771c-6.509.306-13.587.455-21.635.455-1.236,0-2.526,0-3.833-.01-.021-.1-.032-.2-.042-.288a2.3,2.3,0,0,0-.046-.29h-8.8a1.721,1.721,0,0,0,.022.245c.005.04.011.079.015.12H220c0,.039.009.078.013.117-3.885-.043-7.836-.1-11.656-.146h-.025c-4.111-.055-8.358-.111-12.534-.156a.275.275,0,0,1-.043-.178H187a25.479,25.479,0,0,1,1.7-9.86,14.414,14.414,0,0,1,6.653-7.26,15.809,15.809,0,0,1,7.54-1.872,16.959,16.959,0,0,1,5.6.948,15.686,15.686,0,0,1,4.874,2.725,13.442,13.442,0,0,1,3.471,4.325,13.27,13.27,0,0,1,1.39,5.748h3.079a13.108,13.108,0,0,1,1.585-5.712,14.435,14.435,0,0,1,3.7-4.365,17.619,17.619,0,0,1,10.838-3.769,15.323,15.323,0,0,1,5.872,1.129,14.561,14.561,0,0,1,6.235,5.142,17.729,17.729,0,0,1,3,7.576h2.64V55a20.935,20.935,0,0,0,2.114.334c1.875.231,3.813.471,5.188,2.022,1.276,1.435,1.18,3.657,1.1,5.618-.021.482-.04.934-.04,1.363.021,2.268.12,4.589.216,6.833.11,2.563.224,5.214.224,7.841.909-.968,1.816-1.958,2.694-2.915l.006-.006c1.538-1.679,3.127-3.414,4.778-5.082.265-.258.525-.53.8-.819a8.995,8.995,0,0,1,3.159-2.473,10.755,10.755,0,0,1,3.783-.535c1.051,0,2.129.072,3.172.142.971.065,1.889.127,2.722.127-1.289,2.415-3.459,4.307-5.558,6.138-2.272,1.982-4.622,4.032-5.879,6.757h3.079c.444,0,.934.031,1.453.064.566.036,1.151.073,1.727.073a5.95,5.95,0,0,0,2.45-.4c1.206-.513,1.688-1.955,2.113-3.228a12.408,12.408,0,0,1,.526-1.4,15.783,15.783,0,0,1,14.392-8.917,16.381,16.381,0,0,1,7.5,1.79,14.159,14.159,0,0,1,5.685,5.3c2.335,3.964,2.376,8.108,2.419,12.5l-22.873-.178a.874.874,0,0,0-.019-.143,1.194,1.194,0,0,1-.025-.213h-8.8a.821.821,0,0,0,.025.187.583.583,0,0,1,.019.124l-5.369-.038a12.071,12.071,0,0,1,1.832,2.544c.228.382.444.744.663,1.069.584.883,1.195,1.783,1.786,2.654,1.647,2.425,3.348,4.93,4.759,7.507h-.025c-.873,0-1.9.079-2.985.162-1.251.1-2.544.2-3.794.2a10.1,10.1,0,0,1-4.042-.637c-1.124-.512-1.847-1.838-2.485-3.009-.169-.31-.328-.6-.489-.87-.6-.981-1.229-1.971-1.84-2.928l0-.006a68.544,68.544,0,0,1-3.952-6.736l.156,0a.231.231,0,0,1-.052-.094.9.9,0,0,0-.035-.084,15.473,15.473,0,0,0,1.973.1c.748,0,1.549-.03,2.323-.06s1.586-.059,2.346-.059a13.1,13.1,0,0,1,2.814.236l1.053.007a3.569,3.569,0,0,0-1.075-.728.17.17,0,0,1-.138-.046L267,85c.115.253.243.528.382.813l-3.406-.042V100Zm33.977-27a6.585,6.585,0,0,0-3.782,1.227C292.2,75.61,291.462,77.922,291,80h14A7.4,7.4,0,0,0,297.953,73Zm-60.9,0A7.214,7.214,0,0,0,230,80h14c-.353-2.076-1.266-4.824-3.613-6.118A6.8,6.8,0,0,0,237.056,73Zm-34.264,0a6.326,6.326,0,0,0-3.719,1.244c-1.851,1.307-2.427,3.407-3.037,5.631L196,80h14C209.456,76.075,206.29,73,202.791,73Zm123.145,27H317V83.642q0-.277,0-.554c-.006-5.393-.011-10.487,4.915-14.037,2.435-1.764,5.4-2.335,8.489-2.809A19.778,19.778,0,0,1,333.52,66a25.384,25.384,0,0,1,4.48.425V74.58c-.416,0-.847-.01-1.263-.019s-.863-.019-1.3-.019a10.275,10.275,0,0,0-4.142.673c-4.947,2.17-5.361,7.166-5.361,12.1V100ZM155.744,63c-1.469,0-3.8-2.01-4.82-3.074-.457-.483-1.43-1.7-.607-2.551a1.286,1.286,0,0,1,.955-.375c1.809,0,4.5,2.627,4.8,2.926.684.733,1.345,1.788.607,2.652A1.14,1.14,0,0,1,155.744,63Zm5.1-3h0c-.484,0-1-.358-1.58-1.093a18.184,18.184,0,0,1-1.76-3.353c-.465-1.2-.846-2.763-.017-3.353a1.093,1.093,0,0,1,.627-.2,2.338,2.338,0,0,1,1.651,1.093c.776,1.123,3.337,5.553,1.687,6.706A1.065,1.065,0,0,1,160.847,60Zm13.6,0a1.6,1.6,0,0,1-.434-.06,1.24,1.24,0,0,1-.921-.788,3.133,3.133,0,0,1,.615-2.537,16.367,16.367,0,0,1,6.831-5.032,13.722,13.722,0,0,1,5.041-.959c3.085,0,5.947,1,8.977,2.058,1.131.395,2.3.8,3.5,1.162,1.637-3.776,5.1-6.828,7.882-9.28A41.741,41.741,0,0,1,216.762,37.6a30.193,30.193,0,0,1,12.01-2.6,27.4,27.4,0,0,1,10.439,2.084,46.35,46.35,0,0,1,13.574,8.773c.16.142.348.3.547.467,1.2,1.008,3.021,2.53,2.607,4.2-.192.8-.594,1.2-1.2,1.2-1.11,0-2.624-1.346-3.438-2.07-.1-.092-.195-.173-.271-.239-6.49-5.814-12.432-9.06-19.267-10.526a18.1,18.1,0,0,0-3.746-.389c-9.362,0-17.858,7.041-22.09,11.238a53.8,53.8,0,0,0-5.035,5.956c-.135.181-.273.381-.419.593a5,5,0,0,1-2.034,2.038,1.587,1.587,0,0,1-.487.074,6.734,6.734,0,0,1-3.186-1.53,11.836,11.836,0,0,0-1.581-.99,15.942,15.942,0,0,0-6.727-1.631,12.683,12.683,0,0,0-2.907.338,14.766,14.766,0,0,0-6.131,3.509c-.126.113-.258.238-.4.37A4.364,4.364,0,0,1,174.444,60Zm-8.924-1a1.544,1.544,0,0,1-1.442-1.422,10.789,10.789,0,0,1,.181-3.572c.252-1.167.783-2.625,1.887-2.946a1.528,1.528,0,0,1,.41-.06c.929,0,1.316,1.01,1.4,1.607a12.954,12.954,0,0,1-.2,3.535c-.237,1.16-.753,2.589-1.868,2.815A1.64,1.64,0,0,1,165.52,59Z" transform="translate(-149.997 -35)" fill="#fff"/>
</svg>
